<svg version="1.2" xmlns="http://www.w3.org/2000/svg" viewBox="0 0 500 500" width="500" height="500">
	<title>logo-svg</title>
	<style>
		.s0 { fill: #252525 } 
	</style>
	<path id="Layer copy" fill-rule="evenodd" class="s0" d="m500 46l-4.3 16.4-4.5 16.6-71.1 268.2-2.4 9.9-2.8 9.9-87.5 87.5h-101.8l-2.4-10.2-3.9-22.5-32.7 32.7h-103.6l-38.5-149-35.8-138.7-4.4-16.6-4.3-16.6 87.6-87.6h125.7l2.6 10.7 1.7 10.5 1.3 6.4 27.8-27.6h94.8l2.4 10.4 2.2 10.4 1.4 6.4 27.3-27.2zm-17.2 13.4h-97.4l-2.1 10.4-24.3 116.5-25.8-116.5-2.3-10.4h-73.8l-2.4 10.3-26.3 116-23.8-115.8-2.1-10.5h-97.6l4.4 16.6 69.2 268.3 2.5 10.1h82.6l2.5-10.7 27.6-119.1 27.8 119.1 2.3 10.3h80.5l2.6-9.8 71.1-268.2z"/>
</svg>